<?xml version="1.0" encoding="utf-8" standalone="no"?>
<!DOCTYPE svg PUBLIC "-//W3C//DTD SVG 1.1//EN"
  "http://www.w3.org/Graphics/SVG/1.1/DTD/svg11.dtd">
<svg xmlns:xlink="http://www.w3.org/1999/xlink" width="974.93843pt" height="624.57334pt" viewBox="0 0 974.93843 624.57334" xmlns="http://www.w3.org/2000/svg" version="1.1">
 <metadata>
  <rdf:RDF xmlns:dc="http://purl.org/dc/elements/1.1/" xmlns:cc="http://creativecommons.org/ns#" xmlns:rdf="http://www.w3.org/1999/02/22-rdf-syntax-ns#">
   <cc:Work>
    <dc:type rdf:resource="http://purl.org/dc/dcmitype/StillImage"/>
    <dc:date>2026-09-30T23:09:19.389360</dc:date>
    <dc:format>image/svg+xml</dc:format>
    <dc:creator>
     <cc:Agent>
      <dc:title>Matplotlib v3.11.2, https://matplotlib.org/</dc:title>
     </cc:Agent>
    </dc:creator>
   </cc:Work>
  </rdf:RDF>
 </metadata>
 <defs>
  <style type="text/css">*{stroke-linejoin: round; stroke-linecap: butt}</style>
 </defs>
 <g id="figure_1">
  <g id="patch_1">
   <path d="M 0 624.57334
L 974.93843 624.57334
L 974.93843 0
L 0 0
z
" style="fill: #ffffff"/>
  </g>
  <g id="axes_1">
   <g id="patch_2">
    <path d="M 52.69043 446.383312
L 967.73843 446.383312
L 967.73843 52.255312
L 52.69043 52.255312
z
" style="fill: #ffffff"/>
   </g>
   <g id="line2d_1">
    <path d="M 123.361742 274.926499
L 476.21316 105.696397
L 494.250021 99.016262
" clip-path="url(#p180d822e8d)" style="fill: none; stroke-dasharray: 4.44,1.92; stroke-dashoffset: 0; stroke: #aaa0af; stroke-width: 1.2"/>
   </g>
   <g id="matplotlib.axis_1">
    <g id="xtick_1">
     <g id="line2d_2">
      <defs>
       <path id="m4b9a33da3b" d="M 0 0
L 0 3.5
" style="stroke: #57505e; stroke-width: 0.8"/>
      </defs>
      <g>
       <use xlink:href="#m4b9a33da3b" x="52.69043" y="446.383312" style="fill: #57505e; stroke: #57505e; stroke-width: 0.8"/>
      </g>
     </g>
     <g id="text_1">
      <text style="font-size: 10px; font-family: 'Microsoft YaHei'; text-anchor: middle; fill: #57505e" x="52.69043" y="461.908312" transform="rotate(-0 52.69043 461.908312)">$0.3</text>
     </g>
    </g>
    <g id="xtick_2">
     <g id="line2d_3">
      <g>
       <use xlink:href="#m4b9a33da3b" x="247.796903" y="446.383312" style="fill: #57505e; stroke: #57505e; stroke-width: 0.8"/>
      </g>
     </g>
     <g id="text_2">
      <text style="font-size: 10px; font-family: 'Microsoft YaHei'; text-anchor: middle; fill: #57505e" x="247.796903" y="461.908312" transform="rotate(-0 247.796903 461.908312)">$1</text>
     </g>
    </g>
    <g id="xtick_3">
     <g id="line2d_4">
      <g>
       <use xlink:href="#m4b9a33da3b" x="425.82947" y="446.383312" style="fill: #57505e; stroke: #57505e; stroke-width: 0.8"/>
      </g>
     </g>
     <g id="text_3">
      <text style="font-size: 10px; font-family: 'Microsoft YaHei'; text-anchor: middle; fill: #57505e" x="425.82947" y="461.908312" transform="rotate(-0 425.82947 461.908312)">$3</text>
     </g>
    </g>
    <g id="xtick_4">
     <g id="line2d_5">
      <g>
       <use xlink:href="#m4b9a33da3b" x="620.935944" y="446.383312" style="fill: #57505e; stroke: #57505e; stroke-width: 0.8"/>
      </g>
     </g>
     <g id="text_4">
      <text style="font-size: 10px; font-family: 'Microsoft YaHei'; text-anchor: middle; fill: #57505e" x="620.935944" y="461.908312" transform="rotate(-0 620.935944 461.908312)">$10</text>
     </g>
    </g>
    <g id="xtick_5">
     <g id="line2d_6">
      <g>
       <use xlink:href="#m4b9a33da3b" x="798.968511" y="446.383312" style="fill: #57505e; stroke: #57505e; stroke-width: 0.8"/>
      </g>
     </g>
     <g id="text_5">
      <text style="font-size: 10px; font-family: 'Microsoft YaHei'; text-anchor: middle; fill: #57505e" x="798.968511" y="461.908312" transform="rotate(-0 798.968511 461.908312)">$30</text>
     </g>
    </g>
    <g id="xtick_6">
     <g id="line2d_7">
      <g>
       <use xlink:href="#m4b9a33da3b" x="911.294554" y="446.383312" style="fill: #57505e; stroke: #57505e; stroke-width: 0.8"/>
      </g>
     </g>
     <g id="text_6">
      <text style="font-size: 10px; font-family: 'Microsoft YaHei'; text-anchor: middle; fill: #57505e" x="911.294554" y="461.908312" transform="rotate(-0 911.294554 461.908312)">$60</text>
     </g>
    </g>
    <g id="xtick_7"/>
    <g id="xtick_8"/>
    <g id="xtick_9"/>
    <g id="xtick_10"/>
    <g id="xtick_11"/>
    <g id="xtick_12"/>
    <g id="xtick_13"/>
    <g id="xtick_14"/>
    <g id="xtick_15"/>
    <g id="xtick_16"/>
    <g id="xtick_17"/>
    <g id="xtick_18"/>
    <g id="xtick_19"/>
    <g id="xtick_20"/>
    <g id="xtick_21"/>
    <g id="xtick_22"/>
    <g id="xtick_23"/>
    <g id="xtick_24"/>
    <g id="text_7">
     <text style="font-size: 10px; font-family: 'Microsoft YaHei'; text-anchor: middle; fill: #37313d" x="510.21443" y="482.836242" transform="rotate(-0 510.21443 482.836242)">完成全部三题的合计参考成本（USD，对数坐标）</text>
    </g>
   </g>
   <g id="matplotlib.axis_2">
    <g id="ytick_1">
     <g id="line2d_8">
      <path d="M 52.69043 419.66277
L 967.73843 419.66277
" clip-path="url(#p180d822e8d)" style="fill: none; stroke: #e8e4eb; stroke-width: 0.7; stroke-linecap: square"/>
     </g>
     <g id="line2d_9">
      <defs>
       <path id="mc506c08f63" d="M 0 0
L -3.5 0
" style="stroke: #57505e; stroke-width: 0.8"/>
      </defs>
      <g>
       <use xlink:href="#mc506c08f63" x="52.69043" y="419.66277" style="fill: #57505e; stroke: #57505e; stroke-width: 0.8"/>
      </g>
     </g>
     <g id="text_8">
      <text style="font-size: 10px; font-family: 'Microsoft YaHei'; text-anchor: end; fill: #57505e" x="45.69043" y="423.722829" transform="rotate(-0 45.69043 423.722829)">50</text>
     </g>
    </g>
    <g id="ytick_2">
     <g id="line2d_10">
      <path d="M 52.69043 352.861414
L 967.73843 352.861414
" clip-path="url(#p180d822e8d)" style="fill: none; stroke: #e8e4eb; stroke-width: 0.7; stroke-linecap: square"/>
     </g>
     <g id="line2d_11">
      <g>
       <use xlink:href="#mc506c08f63" x="52.69043" y="352.861414" style="fill: #57505e; stroke: #57505e; stroke-width: 0.8"/>
      </g>
     </g>
     <g id="text_9">
      <text style="font-size: 10px; font-family: 'Microsoft YaHei'; text-anchor: end; fill: #57505e" x="45.69043" y="356.921473" transform="rotate(-0 45.69043 356.921473)">60</text>
     </g>
    </g>
    <g id="ytick_3">
     <g id="line2d_12">
      <path d="M 52.69043 286.060058
L 967.73843 286.060058
" clip-path="url(#p180d822e8d)" style="fill: none; stroke: #e8e4eb; stroke-width: 0.7; stroke-linecap: square"/>
     </g>
     <g id="line2d_13">
      <g>
       <use xlink:href="#mc506c08f63" x="52.69043" y="286.060058" style="fill: #57505e; stroke: #57505e; stroke-width: 0.8"/>
      </g>
     </g>
     <g id="text_10">
      <text style="font-size: 10px; font-family: 'Microsoft YaHei'; text-anchor: end; fill: #57505e" x="45.69043" y="290.120117" transform="rotate(-0 45.69043 290.120117)">70</text>
     </g>
    </g>
    <g id="ytick_4">
     <g id="line2d_14">
      <path d="M 52.69043 219.258702
L 967.73843 219.258702
" clip-path="url(#p180d822e8d)" style="fill: none; stroke: #e8e4eb; stroke-width: 0.7; stroke-linecap: square"/>
     </g>
     <g id="line2d_15">
      <g>
       <use xlink:href="#mc506c08f63" x="52.69043" y="219.258702" style="fill: #57505e; stroke: #57505e; stroke-width: 0.8"/>
      </g>
     </g>
     <g id="text_11">
      <text style="font-size: 10px; font-family: 'Microsoft YaHei'; text-anchor: end; fill: #57505e" x="45.69043" y="223.318761" transform="rotate(-0 45.69043 223.318761)">80</text>
     </g>
    </g>
    <g id="ytick_5">
     <g id="line2d_16">
      <path d="M 52.69043 152.457346
L 967.73843 152.457346
" clip-path="url(#p180d822e8d)" style="fill: none; stroke: #e8e4eb; stroke-width: 0.7; stroke-linecap: square"/>
     </g>
     <g id="line2d_17">
      <g>
       <use xlink:href="#mc506c08f63" x="52.69043" y="152.457346" style="fill: #57505e; stroke: #57505e; stroke-width: 0.8"/>
      </g>
     </g>
     <g id="text_12">
      <text style="font-size: 10px; font-family: 'Microsoft YaHei'; text-anchor: end; fill: #57505e" x="45.69043" y="156.517405" transform="rotate(-0 45.69043 156.517405)">90</text>
     </g>
    </g>
    <g id="ytick_6">
     <g id="line2d_18">
      <path d="M 52.69043 85.65599
L 967.73843 85.65599
" clip-path="url(#p180d822e8d)" style="fill: none; stroke: #e8e4eb; stroke-width: 0.7; stroke-linecap: square"/>
     </g>
     <g id="line2d_19">
      <g>
       <use xlink:href="#mc506c08f63" x="52.69043" y="85.65599" style="fill: #57505e; stroke: #57505e; stroke-width: 0.8"/>
      </g>
     </g>
     <g id="text_13">
      <text style="font-size: 10px; font-family: 'Microsoft YaHei'; text-anchor: end; fill: #57505e" x="45.69043" y="89.716049" transform="rotate(-0 45.69043 89.716049)">100</text>
     </g>
    </g>
    <g id="text_14">
     <text style="font-size: 10px; font-family: 'Microsoft YaHei'; text-anchor: middle; fill: #37313d" x="15.564062" y="249.319312" transform="rotate(-90 15.564062 249.319312)">三题等权均分 / 100</text>
    </g>
   </g>
   <g id="patch_3">
    <path d="M 52.69043 446.383312
L 52.69043 52.255312
" style="fill: none; stroke: #b8b3bc; stroke-width: 0.8; stroke-linejoin: miter; stroke-linecap: square"/>
   </g>
   <g id="patch_4">
    <path d="M 52.69043 446.383312
L 967.73843 446.383312
" style="fill: none; stroke: #b8b3bc; stroke-width: 0.8; stroke-linejoin: miter; stroke-linecap: square"/>
   </g>
   <g id="LineCollection_1">
    <path d="M 494.250021 121.28338
L 494.250021 87.882702
" clip-path="url(#p180d822e8d)" style="fill: none; stroke: #c43e66; stroke-opacity: 0.95; stroke-width: 1.1"/>
   </g>
   <g id="line2d_20">
    <defs>
     <path id="m658c0875f3" d="M 3 0
L -3 -0
" style="stroke: #c43e66; stroke-opacity: 0.95"/>
    </defs>
    <g clip-path="url(#p180d822e8d)">
     <use xlink:href="#m658c0875f3" x="494.250021" y="121.28338" style="fill: #c43e66; fill-opacity: 0.95; stroke: #c43e66; stroke-opacity: 0.95"/>
    </g>
   </g>
   <g id="line2d_21">
    <g clip-path="url(#p180d822e8d)">
     <use xlink:href="#m658c0875f3" x="494.250021" y="87.882702" style="fill: #c43e66; fill-opacity: 0.95; stroke: #c43e66; stroke-opacity: 0.95"/>
    </g>
   </g>
   <g id="LineCollection_2">
    <path d="M 476.21316 127.963516
L 476.21316 90.109414
" clip-path="url(#p180d822e8d)" style="fill: none; stroke: #15746b; stroke-opacity: 0.95; stroke-width: 1.1"/>
   </g>
   <g id="line2d_22">
    <defs>
     <path id="m528a0f6c35" d="M 3 0
L -3 -0
" style="stroke: #15746b; stroke-opacity: 0.95"/>
    </defs>
    <g clip-path="url(#p180d822e8d)">
     <use xlink:href="#m528a0f6c35" x="476.21316" y="127.963516" style="fill: #15746b; fill-opacity: 0.95; stroke: #15746b; stroke-opacity: 0.95"/>
    </g>
   </g>
   <g id="line2d_23">
    <g clip-path="url(#p180d822e8d)">
     <use xlink:href="#m528a0f6c35" x="476.21316" y="90.109414" style="fill: #15746b; fill-opacity: 0.95; stroke: #15746b; stroke-opacity: 0.95"/>
    </g>
   </g>
   <g id="LineCollection_3">
    <path d="M 679.689211 139.097075
L 679.689211 101.242974
" clip-path="url(#p180d822e8d)" style="fill: none; stroke: #7e0c6e; stroke-opacity: 0.95; stroke-width: 1.1"/>
   </g>
   <g id="line2d_24">
    <defs>
     <path id="me33c42264d" d="M 3 0
L -3 -0
" style="stroke: #7e0c6e; stroke-opacity: 0.95"/>
    </defs>
    <g clip-path="url(#p180d822e8d)">
     <use xlink:href="#me33c42264d" x="679.689211" y="139.097075" style="fill: #7e0c6e; fill-opacity: 0.95; stroke: #7e0c6e; stroke-opacity: 0.95"/>
    </g>
   </g>
   <g id="line2d_25">
    <g clip-path="url(#p180d822e8d)">
     <use xlink:href="#me33c42264d" x="679.689211" y="101.242974" style="fill: #7e0c6e; fill-opacity: 0.95; stroke: #7e0c6e; stroke-opacity: 0.95"/>
    </g>
   </g>
   <g id="LineCollection_4">
    <path d="M 589.800931 148.003923
L 589.800931 103.469685
" clip-path="url(#p180d822e8d)" style="fill: none; stroke: #167e9a; stroke-opacity: 0.95; stroke-width: 1.1"/>
   </g>
   <g id="line2d_26">
    <defs>
     <path id="m9f380f714f" d="M 3 0
L -3 -0
" style="stroke: #167e9a; stroke-opacity: 0.95"/>
    </defs>
    <g clip-path="url(#p180d822e8d)">
     <use xlink:href="#m9f380f714f" x="589.800931" y="148.003923" style="fill: #167e9a; fill-opacity: 0.95; stroke: #167e9a; stroke-opacity: 0.95"/>
    </g>
   </g>
   <g id="line2d_27">
    <g clip-path="url(#p180d822e8d)">
     <use xlink:href="#m9f380f714f" x="589.800931" y="103.469685" style="fill: #167e9a; fill-opacity: 0.95; stroke: #167e9a; stroke-opacity: 0.95"/>
    </g>
   </g>
   <g id="LineCollection_5">
    <path d="M 884.225523 205.898431
L 884.225523 141.323787
" clip-path="url(#p180d822e8d)" style="fill: none; stroke: #be644b; stroke-opacity: 0.95; stroke-width: 1.1"/>
   </g>
   <g id="line2d_28">
    <defs>
     <path id="mad2d20b9bc" d="M 3 0
L -3 -0
" style="stroke: #be644b; stroke-opacity: 0.95"/>
    </defs>
    <g clip-path="url(#p180d822e8d)">
     <use xlink:href="#mad2d20b9bc" x="884.225523" y="205.898431" style="fill: #be644b; fill-opacity: 0.95; stroke: #be644b; stroke-opacity: 0.95"/>
    </g>
   </g>
   <g id="line2d_29">
    <g clip-path="url(#p180d822e8d)">
     <use xlink:href="#mad2d20b9bc" x="884.225523" y="141.323787" style="fill: #be644b; fill-opacity: 0.95; stroke: #be644b; stroke-opacity: 0.95"/>
    </g>
   </g>
   <g id="LineCollection_6">
    <path d="M 543.050438 257.112804
L 543.050438 199.218296
" clip-path="url(#p180d822e8d)" style="fill: none; stroke: #478b42; stroke-opacity: 0.95; stroke-width: 1.1"/>
   </g>
   <g id="line2d_30">
    <defs>
     <path id="m784dccba80" d="M 3 0
L -3 -0
" style="stroke: #478b42; stroke-opacity: 0.95"/>
    </defs>
    <g clip-path="url(#p180d822e8d)">
     <use xlink:href="#m784dccba80" x="543.050438" y="257.112804" style="fill: #478b42; fill-opacity: 0.95; stroke: #478b42; stroke-opacity: 0.95"/>
    </g>
   </g>
   <g id="line2d_31">
    <g clip-path="url(#p180d822e8d)">
     <use xlink:href="#m784dccba80" x="543.050438" y="199.218296" style="fill: #478b42; fill-opacity: 0.95; stroke: #478b42; stroke-opacity: 0.95"/>
    </g>
   </g>
   <g id="LineCollection_7">
    <path d="M 739.656741 279.379923
L 739.656741 221.485414
" clip-path="url(#p180d822e8d)" style="fill: none; stroke: #52677e; stroke-opacity: 0.95; stroke-width: 1.1"/>
   </g>
   <g id="line2d_32">
    <defs>
     <path id="m1f9868c9c6" d="M 3 0
L -3 -0
" style="stroke: #52677e; stroke-opacity: 0.95"/>
    </defs>
    <g clip-path="url(#p180d822e8d)">
     <use xlink:href="#m1f9868c9c6" x="739.656741" y="279.379923" style="fill: #52677e; fill-opacity: 0.95; stroke: #52677e; stroke-opacity: 0.95"/>
    </g>
   </g>
   <g id="line2d_33">
    <g clip-path="url(#p180d822e8d)">
     <use xlink:href="#m1f9868c9c6" x="739.656741" y="221.485414" style="fill: #52677e; fill-opacity: 0.95; stroke: #52677e; stroke-opacity: 0.95"/>
    </g>
   </g>
   <g id="LineCollection_8">
    <path d="M 123.361742 306.100465
L 123.361742 241.525821
" clip-path="url(#p180d822e8d)" style="fill: none; stroke: #c88700; stroke-opacity: 0.95; stroke-width: 1.1"/>
   </g>
   <g id="line2d_34">
    <defs>
     <path id="m1a7b9a3167" d="M 3 0
L -3 -0
" style="stroke: #c88700; stroke-opacity: 0.95"/>
    </defs>
    <g clip-path="url(#p180d822e8d)">
     <use xlink:href="#m1a7b9a3167" x="123.361742" y="306.100465" style="fill: #c88700; fill-opacity: 0.95; stroke: #c88700; stroke-opacity: 0.95"/>
    </g>
   </g>
   <g id="line2d_35">
    <g clip-path="url(#p180d822e8d)">
     <use xlink:href="#m1a7b9a3167" x="123.361742" y="241.525821" style="fill: #c88700; fill-opacity: 0.95; stroke: #c88700; stroke-opacity: 0.95"/>
    </g>
   </g>
   <g id="LineCollection_9">
    <path d="M 292.910464 397.395651
L 292.910464 317.234024
" clip-path="url(#p180d822e8d)" style="fill: none; stroke: #6857b1; stroke-opacity: 0.95; stroke-width: 1.1"/>
   </g>
   <g id="line2d_36">
    <defs>
     <path id="md6501b8650" d="M 3 0
L -3 -0
" style="stroke: #6857b1; stroke-opacity: 0.95"/>
    </defs>
    <g clip-path="url(#p180d822e8d)">
     <use xlink:href="#md6501b8650" x="292.910464" y="397.395651" style="fill: #6857b1; fill-opacity: 0.95; stroke: #6857b1; stroke-opacity: 0.95"/>
    </g>
   </g>
   <g id="line2d_37">
    <g clip-path="url(#p180d822e8d)">
     <use xlink:href="#md6501b8650" x="292.910464" y="317.234024" style="fill: #6857b1; fill-opacity: 0.95; stroke: #6857b1; stroke-opacity: 0.95"/>
    </g>
   </g>
   <g id="LineCollection_10">
    <path d="M 683.103782 410.755923
L 683.103782 339.501143
" clip-path="url(#p180d822e8d)" style="fill: none; stroke: #888888; stroke-opacity: 0.95; stroke-width: 1.1"/>
   </g>
   <g id="line2d_38">
    <defs>
     <path id="m68c8e84c5b" d="M 3 0
L -3 -0
" style="stroke: #888888; stroke-opacity: 0.95"/>
    </defs>
    <g clip-path="url(#p180d822e8d)">
     <use xlink:href="#m68c8e84c5b" x="683.103782" y="410.755923" style="fill: #888888; fill-opacity: 0.95; stroke: #888888; stroke-opacity: 0.95"/>
    </g>
   </g>
   <g id="line2d_39">
    <g clip-path="url(#p180d822e8d)">
     <use xlink:href="#m68c8e84c5b" x="683.103782" y="339.501143" style="fill: #888888; fill-opacity: 0.95; stroke: #888888; stroke-opacity: 0.95"/>
    </g>
   </g>
   <g id="text_15">
    <text style="font-size: 10.5px; font-family: 'Microsoft YaHei'; text-anchor: start; fill: #625a68" x="52.69043" y="42.402112" transform="rotate(-0 52.69043 42.402112)">10 个模型配置 × 3 道理论物理问题 · 三题等权评分 · 更新 2026-09-30</text>
   </g>
   <g id="text_16">
    <text style="font-size: 18px; font-family: 'Microsoft YaHei'; text-anchor: start; fill: #29232f" x="52.69043" y="22.255312" transform="rotate(-0 52.69043 22.255312)">理论物理问题测试：模型得分与成本</text>
   </g>
   <g id="line2d_40">
    <defs>
     <path id="m775d8497fe" d="M 0 3.25
C 0.86191 3.25 1.688635 2.907559 2.298097 2.298097
C 2.907559 1.688635 3.25 0.86191 3.25 0
C 3.25 -0.86191 2.907559 -1.688635 2.298097 -2.298097
C 1.688635 -2.907559 0.86191 -3.25 0 -3.25
C -0.86191 -3.25 -1.688635 -2.907559 -2.298097 -2.298097
C -2.907559 -1.688635 -3.25 -0.86191 -3.25 0
C -3.25 0.86191 -2.907559 1.688635 -2.298097 2.298097
C -1.688635 2.907559 -0.86191 3.25 0 3.25
z
" style="stroke: #c43e66; stroke-opacity: 0.95"/>
    </defs>
    <g clip-path="url(#p180d822e8d)">
     <use xlink:href="#m775d8497fe" x="494.250021" y="99.016262" style="fill: #c43e66; fill-opacity: 0.95; stroke: #c43e66; stroke-opacity: 0.95"/>
    </g>
   </g>
   <g id="line2d_41">
    <defs>
     <path id="m6cdf3f3db6" d="M 0 3.25
C 0.86191 3.25 1.688635 2.907559 2.298097 2.298097
C 2.907559 1.688635 3.25 0.86191 3.25 0
C 3.25 -0.86191 2.907559 -1.688635 2.298097 -2.298097
C 1.688635 -2.907559 0.86191 -3.25 0 -3.25
C -0.86191 -3.25 -1.688635 -2.907559 -2.298097 -2.298097
C -2.907559 -1.688635 -3.25 -0.86191 -3.25 0
C -3.25 0.86191 -2.907559 1.688635 -2.298097 2.298097
C -1.688635 2.907559 -0.86191 3.25 0 3.25
z
" style="stroke: #15746b; stroke-opacity: 0.95"/>
    </defs>
    <g clip-path="url(#p180d822e8d)">
     <use xlink:href="#m6cdf3f3db6" x="476.21316" y="105.696397" style="fill: #15746b; fill-opacity: 0.95; stroke: #15746b; stroke-opacity: 0.95"/>
    </g>
   </g>
   <g id="line2d_42">
    <defs>
     <path id="m0d93c98de5" d="M 0 3.25
C 0.86191 3.25 1.688635 2.907559 2.298097 2.298097
C 2.907559 1.688635 3.25 0.86191 3.25 0
C 3.25 -0.86191 2.907559 -1.688635 2.298097 -2.298097
C 1.688635 -2.907559 0.86191 -3.25 0 -3.25
C -0.86191 -3.25 -1.688635 -2.907559 -2.298097 -2.298097
C -2.907559 -1.688635 -3.25 -0.86191 -3.25 0
C -3.25 0.86191 -2.907559 1.688635 -2.298097 2.298097
C -1.688635 2.907559 -0.86191 3.25 0 3.25
z
" style="stroke: #7e0c6e; stroke-opacity: 0.95"/>
    </defs>
    <g clip-path="url(#p180d822e8d)">
     <use xlink:href="#m0d93c98de5" x="679.689211" y="114.603245" style="fill: #7e0c6e; fill-opacity: 0.95; stroke: #7e0c6e; stroke-opacity: 0.95"/>
    </g>
   </g>
   <g id="line2d_43">
    <defs>
     <path id="mb075b423b9" d="M 0 3.25
C 0.86191 3.25 1.688635 2.907559 2.298097 2.298097
C 2.907559 1.688635 3.25 0.86191 3.25 0
C 3.25 -0.86191 2.907559 -1.688635 2.298097 -2.298097
C 1.688635 -2.907559 0.86191 -3.25 0 -3.25
C -0.86191 -3.25 -1.688635 -2.907559 -2.298097 -2.298097
C -2.907559 -1.688635 -3.25 -0.86191 -3.25 0
C -3.25 0.86191 -2.907559 1.688635 -2.298097 2.298097
C -1.688635 2.907559 -0.86191 3.25 0 3.25
z
" style="stroke: #167e9a; stroke-opacity: 0.95"/>
    </defs>
    <g clip-path="url(#p180d822e8d)">
     <use xlink:href="#mb075b423b9" x="589.800931" y="123.510092" style="fill: #167e9a; fill-opacity: 0.95; stroke: #167e9a; stroke-opacity: 0.95"/>
    </g>
   </g>
   <g id="line2d_44">
    <defs>
     <path id="md703ece17c" d="M 0 3.25
C 0.86191 3.25 1.688635 2.907559 2.298097 2.298097
C 2.907559 1.688635 3.25 0.86191 3.25 0
C 3.25 -0.86191 2.907559 -1.688635 2.298097 -2.298097
C 1.688635 -2.907559 0.86191 -3.25 0 -3.25
C -0.86191 -3.25 -1.688635 -2.907559 -2.298097 -2.298097
C -2.907559 -1.688635 -3.25 -0.86191 -3.25 0
C -3.25 0.86191 -2.907559 1.688635 -2.298097 2.298097
C -1.688635 2.907559 -0.86191 3.25 0 3.25
z
" style="stroke: #be644b; stroke-opacity: 0.95"/>
    </defs>
    <g clip-path="url(#p180d822e8d)">
     <use xlink:href="#md703ece17c" x="884.225523" y="172.497753" style="fill: #be644b; fill-opacity: 0.95; stroke: #be644b; stroke-opacity: 0.95"/>
    </g>
   </g>
   <g id="line2d_45">
    <defs>
     <path id="md1af76d3eb" d="M 0 3.25
C 0.86191 3.25 1.688635 2.907559 2.298097 2.298097
C 2.907559 1.688635 3.25 0.86191 3.25 0
C 3.25 -0.86191 2.907559 -1.688635 2.298097 -2.298097
C 1.688635 -2.907559 0.86191 -3.25 0 -3.25
C -0.86191 -3.25 -1.688635 -2.907559 -2.298097 -2.298097
C -2.907559 -1.688635 -3.25 -0.86191 -3.25 0
C -3.25 0.86191 -2.907559 1.688635 -2.298097 2.298097
C -1.688635 2.907559 -0.86191 3.25 0 3.25
z
" style="stroke: #478b42; stroke-opacity: 0.95"/>
    </defs>
    <g clip-path="url(#p180d822e8d)">
     <use xlink:href="#md1af76d3eb" x="543.050438" y="228.16555" style="fill: #478b42; fill-opacity: 0.95; stroke: #478b42; stroke-opacity: 0.95"/>
    </g>
   </g>
   <g id="line2d_46">
    <defs>
     <path id="m008bef7121" d="M 0 3.25
C 0.86191 3.25 1.688635 2.907559 2.298097 2.298097
C 2.907559 1.688635 3.25 0.86191 3.25 0
C 3.25 -0.86191 2.907559 -1.688635 2.298097 -2.298097
C 1.688635 -2.907559 0.86191 -3.25 0 -3.25
C -0.86191 -3.25 -1.688635 -2.907559 -2.298097 -2.298097
C -2.907559 -1.688635 -3.25 -0.86191 -3.25 0
C -3.25 0.86191 -2.907559 1.688635 -2.298097 2.298097
C -1.688635 2.907559 -0.86191 3.25 0 3.25
z
" style="stroke: #52677e; stroke-opacity: 0.95"/>
    </defs>
    <g clip-path="url(#p180d822e8d)">
     <use xlink:href="#m008bef7121" x="739.656741" y="250.432668" style="fill: #52677e; fill-opacity: 0.95; stroke: #52677e; stroke-opacity: 0.95"/>
    </g>
   </g>
   <g id="line2d_47">
    <defs>
     <path id="m54d600170e" d="M 0 3.25
C 0.86191 3.25 1.688635 2.907559 2.298097 2.298097
C 2.907559 1.688635 3.25 0.86191 3.25 0
C 3.25 -0.86191 2.907559 -1.688635 2.298097 -2.298097
C 1.688635 -2.907559 0.86191 -3.25 0 -3.25
C -0.86191 -3.25 -1.688635 -2.907559 -2.298097 -2.298097
C -2.907559 -1.688635 -3.25 -0.86191 -3.25 0
C -3.25 0.86191 -2.907559 1.688635 -2.298097 2.298097
C -1.688635 2.907559 -0.86191 3.25 0 3.25
z
" style="stroke: #c88700; stroke-opacity: 0.95"/>
    </defs>
    <g clip-path="url(#p180d822e8d)">
     <use xlink:href="#m54d600170e" x="123.361742" y="274.926499" style="fill: #c88700; fill-opacity: 0.95; stroke: #c88700; stroke-opacity: 0.95"/>
    </g>
   </g>
   <g id="line2d_48">
    <defs>
     <path id="m6147a250ce" d="M 0 3.25
C 0.86191 3.25 1.688635 2.907559 2.298097 2.298097
C 2.907559 1.688635 3.25 0.86191 3.25 0
C 3.25 -0.86191 2.907559 -1.688635 2.298097 -2.298097
C 1.688635 -2.907559 0.86191 -3.25 0 -3.25
C -0.86191 -3.25 -1.688635 -2.907559 -2.298097 -2.298097
C -2.907559 -1.688635 -3.25 -0.86191 -3.25 0
C -3.25 0.86191 -2.907559 1.688635 -2.298097 2.298097
C -1.688635 2.907559 -0.86191 3.25 0 3.25
z
" style="stroke: #6857b1; stroke-opacity: 0.95"/>
    </defs>
    <g clip-path="url(#p180d822e8d)">
     <use xlink:href="#m6147a250ce" x="292.910464" y="361.768262" style="fill: #6857b1; fill-opacity: 0.95; stroke: #6857b1; stroke-opacity: 0.95"/>
    </g>
   </g>
   <g id="line2d_49">
    <defs>
     <path id="m5d3e05a29e" d="M 0 3.25
C 0.86191 3.25 1.688635 2.907559 2.298097 2.298097
C 2.907559 1.688635 3.25 0.86191 3.25 0
C 3.25 -0.86191 2.907559 -1.688635 2.298097 -2.298097
C 1.688635 -2.907559 0.86191 -3.25 0 -3.25
C -0.86191 -3.25 -1.688635 -2.907559 -2.298097 -2.298097
C -2.907559 -1.688635 -3.25 -0.86191 -3.25 0
C -3.25 0.86191 -2.907559 1.688635 -2.298097 2.298097
C -1.688635 2.907559 -0.86191 3.25 0 3.25
z
" style="stroke: #888888; stroke-opacity: 0.95"/>
    </defs>
    <g clip-path="url(#p180d822e8d)">
     <use xlink:href="#m5d3e05a29e" x="683.103782" y="377.355245" style="fill: #888888; fill-opacity: 0.95; stroke: #888888; stroke-opacity: 0.95"/>
    </g>
   </g>
   <g id="patch_5">
    <path d="M 512.371357 88.96903
Q 505.059336 93.023122 497.747315 97.077215
" style="fill: none; opacity: 0.7; stroke: #c43e66; stroke-width: 0.5; stroke-linecap: round"/>
   </g>
   <g id="text_17">
    <g id="patch_6">
     <path d="M 502.266021 88.000262
L 568.914084 88.000262
L 568.914084 64.190953
L 502.266021 64.190953
z
" style="fill: #ffffff; opacity: 0.93"/>
    </g>
    <text style="font-size: 8.2px; font-family: 'Microsoft YaHei'; fill: #c43e66" transform="translate(503.250021 73.860827)">GPT-6.1 Sol max</text>
    <text style="font-size: 8.2px; font-family: 'Microsoft YaHei'; fill: #c43e66" transform="translate(503.250021 84.488716)">98.00 分 · $4.576</text>
   </g>
   <g id="patch_7">
    <path d="M 455.46863 116.770415
Q 464.077154 112.174941 472.685678 107.579467
" style="fill: none; opacity: 0.7; stroke: #15746b; stroke-width: 0.5; stroke-linecap: round"/>
   </g>
   <g id="text_18">
    <g id="patch_8">
     <path d="M 395.609879 141.521706
L 467.19716 141.521706
L 467.19716 117.712397
L 395.609879 117.712397
z
" style="fill: #ffffff; opacity: 0.93"/>
    </g>
    <text style="font-size: 8.2px; font-family: 'Microsoft YaHei'; fill: #15746b" transform="translate(396.593879 126.391224)">GPT-6.1 Sol xhigh</text>
    <text style="font-size: 8.2px; font-family: 'Microsoft YaHei'; fill: #15746b" transform="translate(401.533098 138.01016)">97.00 分 · $4.094</text>
   </g>
   <g id="text_19">
    <g id="patch_9">
     <path d="M 687.705211 125.507899
L 759.161805 125.507899
L 759.161805 101.69859
L 687.705211 101.69859
z
" style="fill: #ffffff; opacity: 0.93"/>
    </g>
    <text style="font-size: 8.2px; font-family: 'Microsoft YaHei'; fill: #7e0c6e" transform="translate(688.689211 110.377418)">GPT-6 Astra high</text>
    <text style="font-size: 8.2px; font-family: 'Microsoft YaHei'; fill: #7e0c6e" transform="translate(688.689211 121.996353)">95.67 分 · $14.370</text>
   </g>
   <g id="patch_10">
    <path d="M 611.857631 138.406973
Q 602.486495 132.077799 593.115359 125.748625
" style="fill: none; opacity: 0.7; stroke: #167e9a; stroke-width: 0.5; stroke-linecap: round"/>
   </g>
   <g id="text_20">
    <g id="patch_11">
     <path d="M 597.816931 163.335401
L 664.464993 163.335401
L 664.464993 139.526092
L 597.816931 139.526092
z
" style="fill: #ffffff; opacity: 0.93"/>
    </g>
    <text style="font-size: 8.2px; font-family: 'Microsoft YaHei'; fill: #167e9a" transform="translate(598.800931 149.195966)">GPT-6 Sol max</text>
    <text style="font-size: 8.2px; font-family: 'Microsoft YaHei'; fill: #167e9a" transform="translate(598.800931 159.823855)">94.33 分 · $8.252</text>
   </g>
   <g id="text_21">
    <g id="patch_12">
     <path d="M 804.75293 183.402407
L 876.209523 183.402407
L 876.209523 159.593099
L 804.75293 159.593099
z
" style="fill: #ffffff; opacity: 0.93"/>
    </g>
    <text style="font-size: 8.2px; font-family: 'Microsoft YaHei'; fill: #be644b" transform="translate(816.327742 168.271926)">Opus 5.5 xhigh</text>
    <text style="font-size: 8.2px; font-family: 'Microsoft YaHei'; fill: #be644b" transform="translate(805.73693 179.890862)">87.00 分 · $50.770</text>
   </g>
   <g id="text_22">
    <g id="patch_13">
     <path d="M 468.386375 239.070204
L 535.034438 239.070204
L 535.034438 215.260895
L 468.386375 215.260895
z
" style="fill: #ffffff; opacity: 0.93"/>
    </g>
    <text style="font-size: 8.2px; font-family: 'Microsoft YaHei'; fill: #478b42" transform="translate(471.214094 223.939723)">GPT-6 Sol xhigh</text>
    <text style="font-size: 8.2px; font-family: 'Microsoft YaHei'; fill: #478b42" transform="translate(469.370375 235.558658)">78.67 分 · $6.184</text>
   </g>
   <g id="text_23">
    <g id="patch_14">
     <path d="M 747.672741 261.337323
L 819.260023 261.337323
L 819.260023 237.528014
L 747.672741 237.528014
z
" style="fill: #ffffff; opacity: 0.93"/>
    </g>
    <text style="font-size: 8.2px; font-family: 'Microsoft YaHei'; fill: #52677e" transform="translate(748.656741 246.206841)">GPT-5.6 Sol xhigh</text>
    <text style="font-size: 8.2px; font-family: 'Microsoft YaHei'; fill: #52677e" transform="translate(748.656741 257.825777)">75.33 分 · $20.805</text>
   </g>
   <g id="text_24">
    <g id="patch_15">
     <path d="M 131.377742 285.831153
L 198.025805 285.831153
L 198.025805 262.021845
L 131.377742 262.021845
z
" style="fill: #ffffff; opacity: 0.93"/>
    </g>
    <text style="font-size: 8.2px; font-family: 'Microsoft YaHei'; fill: #c88700" transform="translate(132.361742 271.567437)">GPT-6 Luna max</text>
    <text style="font-size: 8.2px; font-family: 'Microsoft YaHei'; fill: #c88700" transform="translate(132.361742 282.319607)">71.67 分 · $0.464</text>
   </g>
   <g id="text_25">
    <g id="patch_16">
     <path d="M 300.926464 372.672916
L 402.890902 372.672916
L 402.890902 348.863607
L 300.926464 348.863607
z
" style="fill: #ffffff; opacity: 0.93"/>
    </g>
    <text style="font-size: 8.2px; font-family: 'Microsoft YaHei'; fill: #6857b1" transform="translate(301.910464 357.566138)">DeepSeek V4.1 Flash max</text>
    <text style="font-size: 8.2px; font-family: 'Microsoft YaHei'; fill: #6857b1" transform="translate(301.910464 369.16137)">58.67 分 · $1.321</text>
   </g>
   <g id="text_26">
    <g id="patch_17">
     <path d="M 691.119782 391.259899
L 762.576376 391.259899
L 762.576376 367.45059
L 691.119782 367.45059
z
" style="fill: #ffffff; opacity: 0.93"/>
    </g>
    <text style="font-size: 8.2px; font-family: 'Microsoft YaHei'; fill: #888888" transform="translate(692.103782 376.129418)">Grok 4.7 high</text>
    <text style="font-size: 8.2px; font-family: 'Microsoft YaHei'; fill: #888888" transform="translate(692.103782 387.748353)">56.33 分 · $14.676</text>
   </g>
  </g>
  <g id="line2d_50">
   <path d="M 52.69043 533.820112
L 967.73843 533.820112
" style="fill: none; stroke: #ddd7e0; stroke-width: 0.6; stroke-linecap: square"/>
  </g>
  <g id="text_27">
   <text style="font-size: 8.5px; font-family: 'Microsoft YaHei'; text-anchor: start; fill: #625a68" x="52.69043" y="505.999312" transform="rotate(-0 52.69043 505.999312)">虚线连接中心分数下的 Pareto 前沿；竖线为三题评阅范围端点的均值，非统计置信区间。</text>
  </g>
  <g id="text_28">
   <text style="font-size: 8.5px; font-family: 'Microsoft YaHei'; text-anchor: start; fill: #625a68" x="52.69043" y="521.896912" transform="rotate(-0 52.69043 521.896912)">成本采用本次记录的美元参考值，不代表实付金额、FLOPs 或推理时间；连线仅作视觉引导。</text>
  </g>
  <g id="text_29">
   <text style="font-size: 8.2px; font-family: 'Microsoft YaHei'; text-anchor: start; fill: #655e6b" x="52.69043" y="549.055313" transform="rotate(-0 52.69043 549.055313)">题库与评分标准：真·无水零醇使用 GPT 6 Pro 辅助完成。</text>
  </g>
  <g id="text_30">
   <text style="font-size: 8.2px; font-family: 'Microsoft YaHei'; text-anchor: start; fill: #655e6b" x="52.69043" y="565.615312" transform="rotate(-0 52.69043 565.615312)">问题作答：真·无水零醇和食司使用相关模型共同完成。</text>
  </g>
  <g id="text_31">
   <text style="font-size: 8.2px; font-family: 'Microsoft YaHei'; text-anchor: start; fill: #655e6b" x="52.69043" y="582.175313" transform="rotate(-0 52.69043 582.175313)">评分：食司使用 GPT 6 Astra Max 完成。</text>
  </g>
  <g id="text_32">
   <text style="font-size: 8.2px; font-family: 'Microsoft YaHei'; text-anchor: start; fill: #655e6b" x="52.69043" y="598.735312" transform="rotate(-0 52.69043 598.735312)">评分按匿名编号开展，向评分模型隐去作答模型的型号；不排除同一族模型在出题和评分时存在隐性偏好。</text>
  </g>
  <g id="text_33">
   <text style="font-size: 8.2px; font-family: 'Microsoft YaHei'; text-anchor: start; fill: #655e6b" x="52.69043" y="615.295313" transform="rotate(-0 52.69043 615.295313)">匿名性限制：部分补充答卷的附录或元数据含型号线索；评分记录已披露，未据此调整分数。</text>
  </g>
 </g>
 <defs>
  <clipPath id="p180d822e8d">
   <rect x="52.69043" y="52.255312" width="915.048" height="394.128"/>
  </clipPath>
 </defs>
</svg>
